<svg width="64" height="64" viewBox="0 0 64 64" fill="none" xmlns="http://www.w3.org/2000/svg">
<path fill-rule="evenodd" clip-rule="evenodd" d="M32 21C32.3242 21 32.635 21.1288 32.8642 21.358C33.0935 21.5872 33.2222 21.8981 33.2222 22.2222V32C33.2222 32.3242 33.0935 32.635 32.8642 32.8642C32.635 33.0935 32.3242 33.2222 32 33.2222H22.2222C21.8981 33.2222 21.5872 33.0935 21.358 32.8642C21.1288 32.635 21 32.3242 21 32C21 31.6758 21.1288 31.365 21.358 31.1358C21.5872 30.9065 21.8981 30.7778 22.2222 30.7778H30.7778V22.2222C30.7778 21.8981 30.9065 21.5872 31.1358 21.358C31.365 21.1288 31.6758 21 32 21V21Z" fill="#43B581"/>
<path fill-rule="evenodd" clip-rule="evenodd" d="M30.7778 32C30.7778 31.6759 30.9066 31.365 31.1358 31.1358C31.365 30.9066 31.6759 30.7778 32 30.7778H41.7778C42.1019 30.7778 42.4128 30.9066 42.642 31.1358C42.8712 31.365 43 31.6759 43 32C43 32.3242 42.8712 32.635 42.642 32.8643C42.4128 33.0935 42.1019 33.2222 41.7778 33.2222H33.2222V41.7778C33.2222 42.1019 33.0935 42.4128 32.8643 42.642C32.635 42.8712 32.3242 43 32 43C31.6759 43 31.365 42.8712 31.1358 42.642C30.9066 42.4128 30.7778 42.1019 30.7778 41.7778V32Z" fill="#43B581"/>
</svg>
